# xmcd
#
# Track frame offsets:
# 182
# 1637
# 9505
# 18652
# 26750
# 35042
# 45595
# 53172
# 62225
# 72470
# 85290
# 97225
# 103335
# 113110
# 123210
# 133327
# 143122
# 149770
# 159110
# 168742
# 179982
# 191022
#
# Disc length: 2648 seconds
#
#
# Revision: 0
# Processed by: cddbd v1.5.1PL0 Copyright (c) Steve Scherf et al.
# Submitted via: FreeRIP 2.942 
#
DISCID=4b0a5616
DTITLE=Nat King Cole - Nat King Cole Shows Volumen 3
DYEAR=1995
DGENRE=Blues
TTITLE0=Intro
TTITLE1=You 're the top
TTITLE2=But not for me
TTITLE3=You are my first love
TTITLE4=Just you...just me
TTITLE5=There will never be another you
TTITLE6=That's my girl
TTITLE7=Coquette
TTITLE8=True love
TTITLE9=Tea for two
TTITLE10=My funny Valentine
TTITLE11=I'm shooting high
TTITLE12=Blueberry hill
TTITLE13=I've grown accustomed to her face
TTITLE14=Ballerina
TTITLE15=Pretend
TTITLE16=Should I reveal that I love you
TTITLE17=It all depends on you
TTITLE18=Namely you
TTITLE19=This is my night to dream
TTITLE20=Unforgettable
TTITLE21=Closing theme
EXTD=
EXTT0=
EXTT1=
EXTT2=
EXTT3=
EXTT4=
EXTT5=
EXTT6=
EXTT7=
EXTT8=
EXTT9=
EXTT10=
EXTT11=
EXTT12=
EXTT13=
EXTT14=
EXTT15=
EXTT16=
EXTT17=
EXTT18=
EXTT19=
EXTT20=
EXTT21=
PLAYORDER=
